<svg width="258" height="258" viewBox="0 0 258 258" fill="none" xmlns="http://www.w3.org/2000/svg">
<path d="M126.964 0C62.0334 0 66.0876 28.0952 66.0876 28.0952L66.1597 57.2027H128.122V65.9415H41.5492C41.5492 65.9415 0 61.2398 0 126.609C0 191.98 36.2652 189.661 36.2652 189.661H57.9081V159.327C57.9081 159.327 56.7414 123.142 93.5944 123.142H155.05C155.05 123.142 189.578 123.699 189.578 89.8467V33.8741C189.578 33.8741 194.822 0 126.964 0ZM92.7982 19.5742C94.2624 19.5729 95.7125 19.8597 97.0655 20.4182C98.4186 20.9766 99.6479 21.7958 100.683 22.8289C101.719 23.8619 102.54 25.0885 103.099 26.4385C103.659 27.7885 103.947 29.2354 103.945 30.6964C103.947 32.1573 103.659 33.6042 103.099 34.9542C102.54 36.3042 101.719 37.5308 100.683 38.5639C99.6479 39.5969 98.4186 40.4161 97.0655 40.9746C95.7125 41.5331 94.2624 41.8198 92.7982 41.8185C91.334 41.8198 89.8839 41.5331 88.5309 40.9746C87.1779 40.4161 85.9486 39.5969 84.9132 38.5639C83.8778 37.5308 83.0568 36.3042 82.4971 34.9542C81.9374 33.6042 81.6499 32.1573 81.6513 30.6964C81.6499 29.2354 81.9374 27.7885 82.4971 26.4385C83.0568 25.0885 83.8778 23.8619 84.9132 22.8289C85.9486 21.7958 87.1779 20.9766 88.5309 20.4182C89.8839 19.8597 91.334 19.5729 92.7982 19.5742Z" fill="url(#paint0_linear_856_1505)"/>
<path d="M130.448 257.411C195.379 257.411 191.325 229.316 191.325 229.316L191.253 200.209H129.29V191.47H215.863C215.863 191.47 257.412 196.172 257.412 130.801C257.412 65.4313 221.147 67.7497 221.147 67.7497H199.504V98.0833C199.504 98.0833 200.67 134.268 163.817 134.268H102.362C102.362 134.268 67.8342 133.711 67.8342 167.564V223.538C67.8342 223.538 62.5912 257.411 130.447 257.411H130.448ZM164.614 237.839C163.15 237.84 161.7 237.553 160.347 236.995C158.994 236.436 157.765 235.617 156.729 234.584C155.694 233.551 154.873 232.324 154.313 230.974C153.754 229.624 153.466 228.178 153.468 226.717C153.466 225.256 153.753 223.809 154.313 222.458C154.873 221.108 155.694 219.882 156.729 218.848C157.764 217.815 158.994 216.996 160.347 216.438C161.7 215.879 163.15 215.592 164.614 215.593C166.079 215.592 167.529 215.879 168.882 216.437C170.235 216.996 171.464 217.815 172.5 218.848C173.535 219.881 174.356 221.108 174.916 222.458C175.475 223.808 175.763 225.255 175.761 226.716C175.763 228.177 175.475 229.623 174.916 230.973C174.356 232.323 173.535 233.55 172.5 234.583C171.464 235.616 170.235 236.435 168.882 236.994C167.529 237.552 166.079 237.839 164.614 237.838V237.839Z" fill="url(#paint1_linear_856_1505)"/>
<defs>
<linearGradient id="paint0_linear_856_1505" x1="24.5795" y1="22.8345" x2="151.052" y2="148.325" gradientUnits="userSpaceOnUse">
<stop stop-color="#387EB8"/>
<stop offset="1" stop-color="#366994"/>
</linearGradient>
<linearGradient id="paint1_linear_856_1505" x1="104.021" y1="106.772" x2="239.852" y2="235.464" gradientUnits="userSpaceOnUse">
<stop stop-color="#FFE052"/>
<stop offset="1" stop-color="#FFC331"/>
</linearGradient>
</defs>
</svg>
